<?xml version="1.0" encoding="UTF-8" standalone="no"?>
<svg width="69px" height="69px" viewBox="0 0 69 69" version="1.1" xmlns="http://www.w3.org/2000/svg" xmlns:xlink="http://www.w3.org/1999/xlink">
    <!-- Generator: Sketch 42 (36781) - http://www.bohemiancoding.com/sketch -->
    <title>designerIcon</title>
    <desc>Created with Sketch.</desc>
    <defs></defs>
    <g id="Page-1" stroke="none" stroke-width="1" fill="none" fill-rule="evenodd">
        <g id="designerIcon" transform="translate(2.000000, 2.000000)">
            <path d="M34.7792454,22.0744671 L34.7792454,20.6546515 C34.1357395,20.6607394 30.093185,20.6928843 30.0549523,20.6546515 C28.9387349,28.4914306 30.0549523,52.1520151 30.0549523,54.425849 C30.0549523,56.6958407 31.3471729,59.6389558 32.5015251,59.6488953 C33.6572219,59.65125 34.7792454,56.6996828 34.7792454,54.425849 L34.7792454,22.0744671 L34.8650916,20.6546515 C34.8650916,20.6546515 34.8348646,20.6549148 34.7792029,20.6553786 Z M30.5304647,20.2622191 C29.1528461,19.2208132 28.3198584,16.3326855 29.0145228,14.0977775 C29.7091873,11.8628694 31.4975673,8.12061863 29.8592055,6.87717436 C28.2208438,5.6337301 34.6788355,9.69122923 35.6725793,11.8554916 C36.4064072,13.4536862 37.4972605,16.9036143 34.5744398,20.2622191 L30.5304647,20.2622191 Z" id="Combined-Shape" stroke="#9C87D5" fill="#D1E1EC" transform="translate(32.629659, 33.147025) rotate(45.000000) translate(-32.629659, -33.147025) "></path>
            <path d="M49.1928377,11.8879567 C48.8096633,13.3644665 50.0558726,13.7842875 46.3872634,15.7250497 C42.7186542,17.6658119 47.488095,16.2081075 48.049352,16.2081075 C48.6106091,16.2081075 44.0188937,18.9504116 44.697805,18.9504116 C45.3767163,18.9504116 48.6095427,17.7098878 48.6095427,17.1639151 C48.6095427,16.6179425 46.9893973,21.4293265 47.79947,20.1898691 C48.6095427,18.9504116 49.1928377,18.4254895 49.8817016,17.9608362 C49.8817016,19.5826904 49.3730618,20.9358745 48.8096633,22.0663828 C46.3872634,24.3087003 51.0177229,22.3549208 50.4497123,16.8145069 C49.8817016,11.2740929 49.1928377,11.8879567 49.1928377,11.8879567 Z" id="Path-3" stroke="#713BB2" fill="#713BB2"></path>
            <circle id="Oval" stroke="#9C87D5" stroke-width="4" cx="32.5" cy="32.5" r="32.5"></circle>
        </g>
    </g>
</svg>