<?xml version="1.0" encoding="UTF-8" standalone="no"?>
<svg width="71px" height="71px" viewBox="0 0 71 71" version="1.1" xmlns="http://www.w3.org/2000/svg" xmlns:xlink="http://www.w3.org/1999/xlink">
    <!-- Generator: Sketch 42 (36781) - http://www.bohemiancoding.com/sketch -->
    <title>writerIcon</title>
    <desc>Created with Sketch.</desc>
    <defs></defs>
    <g id="Page-1" stroke="none" stroke-width="1" fill="none" fill-rule="evenodd">
        <g id="writerIcon" transform="translate(3.000000, 3.000000)">
            <g id="Group" transform="translate(32.240577, 32.764145) rotate(27.000000) translate(-32.240577, -32.764145) translate(28.240577, 5.764145)">
                <path d="M0.759307349,1.90734318 C0.759307349,1.90734318 0.759307349,43.1774012 0.759307349,43.1774012 L4.10321347,52.9452962 L7.4471196,43.1774012 C7.4471196,43.1774012 7.4471196,1.90734318 7.4471196,1.90734318 C6.51544698,-0.624201509 1.29531004,-0.40336164 0.759307349,1.90734318 Z" id="Path-4" stroke="#BA6A1E" fill="#E1A72B"></path>
                <path d="M0.779327891,5.9082235 C1.59670334,6.64457007 6.09870097,7.12635185 7.46714014,5.9079867 C7.46714014,5.9079867 7.51118992,8.65506885 7.51118992,8.65506885 C5.66115337,9.81122459 1.69841815,9.50990866 0.854154447,8.5902151 C0.609136386,8.71505804 0.779327891,5.9082235 0.779327891,5.9082235 Z" id="Path-5-Copy" stroke="#8D5016" fill="#8D5016"></path>
                <polyline id="Path-6" stroke="#BA6A1E" points="1.2232448 43.3075498 2.44004929 42.0243576 3.66578197 43.39756 4.90193088 41.9331803 6.06881866 43.4121484 7.38491548 42.0271294"></polyline>
                <polygon id="Path-7" stroke="#8D5016" fill="#8D5016" points="3.12309389 50.1133893 4.05513496 48.3533109 5.20746914 50.1523617 4.18956716 53.7387995"></polygon>
            </g>
            <path d="M39.0883259,12.0128308 C39.0883259,12.0128308 40.8962635,8.72934338 40.8962635,8.72934338 C43.4800077,7.26955484 46.7836854,9.79920152 46.7836854,11.6033956 C46.7836854,11.6033956 45.1430254,15.2586856 45.1430254,15.2586856 C42.7407191,15.3865015 40.4485436,14.1041482 39.0883259,12.0128308 Z" id="Path-5" stroke="#8D5016" fill="#BA6A1E"></path>
            <circle id="Oval-Copy-3" stroke="#BA6A1D" stroke-width="5" cx="32.5" cy="32.5" r="32.5"></circle>
        </g>
    </g>
</svg>